<svg version="1.1" id="Layer_1" xmlns="http://www.w3.org/2000/svg" xmlns:xlink="http://www.w3.org/1999/xlink" x="0px" y="0px"
	 viewBox="0 0 224.7 58.8" style="enable-background:new 0 0 224.7 58.8;" xml:space="preserve">
	<g id="SSC_x5F_Logotype_Logo_x5F_CMYK_x5F_NavyBlue_00000008851987591120284490000012822356177382705548_">
		<path fill="#093569" d="M5.7,5.7V3.6c0-0.4-0.3-0.7-0.7-0.7H3.7C3.3,2.9,3,3.2,3,3.6V6c0,0.3,0,0.9,0.6,1.5l3.7,4.1
			c0,0,1.4,1.4,1.4,3.3v5.1c0,1.5-1.2,2.8-2.8,2.8H2.8c-1.5,0-2.8-1.2-2.8-2.8v-4.9c0-0.3,0.3-0.6,0.6-0.6h1.8
			c0.3,0,0.6,0.3,0.6,0.5v4c0,0.4,0.3,0.7,0.7,0.7h1.2c0.4,0,0.7-0.3,0.7-0.7v-3.9c0-0.2,0-0.9-0.6-1.5L1,9.3c0,0-1-1-1-3.3V2.8
			C0,1.2,1.2,0,2.8,0h3.1c1.5,0,2.8,1.2,2.8,2.8v2.9c0,0.3-0.3,0.6-0.6,0.6H6.2C5.9,6.2,5.7,6,5.7,5.7"/>
		<path fill="#093569" d="M20.6,0.5v19.6c0,1.5-1.2,2.8-2.8,2.8h-3c-1.5,0-2.8-1.2-2.8-2.8V0.5C12,0.2,12.3,0,12.6,0h1.8
			C14.7,0,15,0.2,15,0.5v18.8c0,0.4,0.3,0.7,0.7,0.7h1.1c0.4,0,0.7-0.3,0.7-0.7V0.5c0-0.3,0.3-0.5,0.6-0.5H20
			C20.3,0,20.6,0.2,20.6,0.5"/>
		<path fill="#093569" d="M26.8,22.9c-0.3,0-0.6-0.3-0.6-0.6V2.9h-2.1c-0.3,0-0.5-0.3-0.5-0.6V0.6c0-0.3,0.3-0.5,0.6-0.5h7.2
			c0.3,0,0.6,0.3,0.6,0.5v1.8c0,0.3-0.3,0.6-0.6,0.6h-2.1v19.4c0,0.3-0.3,0.6-0.6,0.6L26.8,22.9L26.8,22.9z"/>
		<path fill="#093569" d="M43.3,0.6v21.7c0,0.3-0.2,0.6-0.5,0.6h-1.9c-0.3,0-0.6-0.3-0.6-0.6v-9.4h-2.4v9.4c0,0.3-0.2,0.6-0.5,0.6
			h-1.9c-0.3,0-0.6-0.3-0.6-0.6V0.6c0-0.3,0.3-0.6,0.6-0.6h1.9c0.3,0,0.5,0.3,0.5,0.6V10h2.4V0.6c0-0.3,0.3-0.6,0.6-0.6h1.9
			C43.1,0,43.3,0.3,43.3,0.6"/>
		<path fill="#093569" d="M50,12.9V20h3.8c0.3,0,0.5,0.3,0.5,0.5v1.8c0,0.3-0.2,0.6-0.5,0.6h-6.2c-0.3,0-0.6-0.3-0.6-0.6V0.5
			C47,0.2,47.2,0,47.5,0h6.2c0.3,0,0.5,0.3,0.5,0.5v1.8c0,0.3-0.2,0.6-0.5,0.6H50V10h3.5c0.3,0,0.5,0.3,0.5,0.5v1.8
			c0,0.3-0.2,0.6-0.5,0.6L50,12.9L50,12.9z"/>
		<path fill="#093569" d="M57.9,0.6c0-0.3,0.3-0.6,0.6-0.6h5.3c1.5,0,2.8,1.2,2.8,2.8V10c0,1.2-0.5,2.2-1.6,2.6l3,9.7
			c0.1,0.3-0.1,0.5-0.4,0.5h-2.1c0,0-0.6,0-0.7-0.6l-2.8-9.4h-1.1v9.4c0,0.3-0.3,0.6-0.6,0.6h-1.8c-0.3,0-0.6-0.3-0.6-0.6L57.9,0.6
			L57.9,0.6z M63.5,3.6c0-0.4-0.3-0.7-0.7-0.7h-2V10h2c0.4,0,0.7-0.3,0.7-0.7V3.6z"/>
		<path fill="#093569" d="M70.7,0.6c0-0.3,0.3-0.6,0.6-0.6h1.8c0.3,0,0.6,0.3,0.6,0.6V20h3.6c0.3,0,0.6,0.3,0.6,0.6v1.8
			c0,0.3-0.3,0.6-0.6,0.6h-6.1c-0.3,0-0.6-0.3-0.6-0.6L70.7,0.6L70.7,0.6z"/>
		<path fill="#093569" d="M89.9,22.3c0.1,0.3-0.2,0.6-0.5,0.6h-1.9c-0.1,0-0.6,0-0.6-0.6l-0.5-4.4h-2.4l-0.5,4.4
			c-0.1,0.6-0.5,0.6-0.6,0.6H81c-0.3,0-0.5-0.3-0.5-0.6l2.8-21.7c0-0.3,0.2-0.5,0.5-0.5h2.7c0.3,0,0.5,0.3,0.5,0.5L89.9,22.3z
				M86,15l-0.8-7.6h-0.1L84.3,15H86z"/>
		<path fill="#093569" d="M93.6,22.9c-0.3,0-0.6-0.3-0.6-0.6V0.6C93,0.3,93.3,0,93.6,0h1.7c0.3,0,0.5,0.2,0.6,0.6l3,12.3h0l-0.1-4.7
			V0.6c0-0.3,0.3-0.6,0.6-0.6h1.7c0.3,0,0.6,0.3,0.6,0.6v21.7c0,0.3-0.3,0.6-0.6,0.6h-1.6c-0.3,0-0.5-0.2-0.6-0.6l-3-12.3h0
			l0.1,4.7v7.6c0,0.3-0.3,0.6-0.6,0.6L93.6,22.9L93.6,22.9z"/>
		<path fill="#093569" d="M105.2,0.5c0-0.3,0.3-0.5,0.6-0.5h5.3c1.5,0,2.8,1.2,2.8,2.8v17.4c0,1.5-1.2,2.8-2.8,2.8h-5.3
			c-0.3,0-0.6-0.3-0.6-0.6L105.2,0.5L105.2,0.5z M110.9,3.6c0-0.4-0.3-0.7-0.7-0.7h-2V20h2c0.4,0,0.7-0.3,0.7-0.7V3.6z"/>
		<path fill="#093569" d="M122.9,5.7V3.6c0-0.4-0.3-0.7-0.7-0.7h-1.2c-0.4,0-0.7,0.3-0.7,0.7V6c0,0.3,0,0.9,0.6,1.5l3.7,4.1
			c0,0,1.4,1.4,1.4,3.3v5.1c0,1.5-1.2,2.8-2.8,2.8H120c-1.5,0-2.8-1.2-2.8-2.8v-4.9c0-0.3,0.3-0.6,0.6-0.6h1.8
			c0.3,0,0.6,0.3,0.6,0.5v4c0,0.4,0.3,0.7,0.7,0.7h1.2c0.4,0,0.7-0.3,0.7-0.7v-3.9c0-0.2,0-0.9-0.6-1.5l-4-4.6c0,0-1-1-1-3.3V2.8
			c0-1.5,1.2-2.8,2.8-2.8h3.1c1.5,0,2.8,1.2,2.8,2.8v2.9c0,0.3-0.3,0.6-0.6,0.6h-1.8C123.1,6.2,122.9,6,122.9,5.7"/>
		<path fill="#093569" d="M137.8,0.6v21.7c0,0.3-0.2,0.6-0.5,0.6h-1.9c-0.3,0-0.6-0.3-0.6-0.6v-9.4h-2.5v9.4c0,0.3-0.2,0.6-0.5,0.6
			H130c-0.3,0-0.6-0.3-0.6-0.6V0.6c0-0.3,0.3-0.6,0.6-0.6h1.9c0.3,0,0.5,0.3,0.5,0.6V10h2.4V0.6c0-0.3,0.3-0.6,0.6-0.6h1.9
			C137.6,0,137.8,0.3,137.8,0.6"/>
		<path fill="#093569" d="M141.5,0.6c0-0.3,0.3-0.6,0.6-0.6h1.9c0.3,0,0.5,0.3,0.5,0.6v21.7c0,0.3-0.3,0.6-0.5,0.6h-1.9
			c-0.3,0-0.6-0.3-0.6-0.6V0.6z"/>
		<path fill="#093569" d="M148.2,0.6c0-0.3,0.3-0.6,0.6-0.6h5.3c1.5,0,2.8,1.2,2.8,2.8V10c0,1.2-0.5,2.2-1.6,2.6l3,9.7
			c0.1,0.3-0.1,0.5-0.4,0.5h-2.1c0,0-0.6,0-0.7-0.6l-2.8-9.4h-1.1v9.4c0,0.3-0.3,0.6-0.6,0.6h-1.8c-0.3,0-0.6-0.3-0.6-0.6
			L148.2,0.6L148.2,0.6z M153.9,3.6c0-0.4-0.3-0.7-0.7-0.7h-2V10h2c0.4,0,0.7-0.3,0.7-0.7V3.6z"/>
		<path fill="#093569" d="M164,12.9V20h3.8c0.3,0,0.5,0.3,0.5,0.5v1.8c0,0.3-0.2,0.6-0.5,0.6h-6.2c-0.3,0-0.6-0.3-0.6-0.6V0.5
			c0-0.3,0.3-0.5,0.6-0.5h6.2c0.3,0,0.5,0.3,0.5,0.5v1.8c0,0.3-0.2,0.6-0.5,0.6H164V10h3.5c0.3,0,0.5,0.3,0.5,0.5v1.8
			c0,0.3-0.2,0.6-0.5,0.6L164,12.9L164,12.9z"/>
	</g>
	<g>
		<path fill="#00BFDF" d="M1,58.6c-0.5,0-1-0.4-1-1V28.8c0-0.5,0.4-1,1-1h5.9c0.5,0,1,0.4,1,1v21.4c0,0.4,0.4,0.8,0.8,0.8h13
			c0.5,0,1,0.4,1,1v5.7c0,0.5-0.4,1-1,1H1z"/>
		<path fill="#00BFDF" d="M25.5,28.8c0-0.5,0.4-1,1-1h6c0.5,0,1,0.4,1,1v28.8c0,0.5-0.4,1-1,1h-6c-0.5,0-1-0.4-1-1
			C25.5,57.7,25.5,28.8,25.5,28.8z"/>
		<path fill="#00BFDF" d="M39.1,58.6c-0.5,0-1-0.4-1-1V28.8c0-0.5,0.4-1,1-1h14.4c6.6,0,10,3.6,10,8.5c0,2.8-1.2,4.8-3.1,6.1
			c-0.3,0.2-0.3,0.6,0,0.7c2.7,1.2,4.4,3.5,4.4,6.8c0,5.1-3.8,8.7-10,8.7L39.1,58.6L39.1,58.6z M53,35.1h-6.2c-0.4,0-0.8,0.4-0.8,0.8
			v3.3c0,0.4,0.4,0.8,0.8,0.8h5.7c2.1,0,2.9-1,2.9-2.5S54.6,35.1,53,35.1z M53.9,46.1h-7.1c-0.4,0-0.8,0.4-0.8,0.8v3.9
			c0,0.4,0.4,0.8,0.8,0.8h7.1c2.1,0,2.9-1.1,2.9-2.8C56.8,47.1,56,46.1,53.9,46.1z"/>
		<path fill="#00BFDF" d="M68.2,28.8c0-0.5,0.4-1,1-1h14.1c7.9,0,11.5,5.1,11.5,11.2c0,4.1-1.7,7.9-5.4,9.8c-0.4,0.2-0.5,0.7-0.2,1
			l5.7,7.9c0.2,0.4,0,0.8-0.4,0.8h-7.5c-0.6,0-1.1-0.3-1.5-0.8L80.5,51c-0.3-0.4-0.8-0.6-1.2-0.6h-2.5c-0.4,0-0.8,0.4-0.8,0.8v6.5
			c0,0.5-0.4,1-1,1h-5.9c-0.5,0-1-0.4-1-1L68.2,28.8L68.2,28.8z M82.7,35.1h-5.9c-0.4,0-0.8,0.4-0.8,0.8v6.6c0,0.4,0.4,0.8,0.8,0.8
			h5.9c3.2,0,4.3-1.9,4.3-4.1C87.1,36.8,85.9,35.1,82.7,35.1z"/>
		<path fill="#00BFDF" d="M107.5,28.7c0.2-0.5,0.7-0.9,1.3-0.9h5.9c0.6,0,1.1,0.4,1.3,0.9l11.7,29c0.1,0.4-0.1,0.9-0.6,0.9h-6.7
			c-0.6,0-1.1-0.4-1.2-0.9l-1.1-2.9c-0.1-0.4-0.6-0.7-1.1-0.7h-10.5c-0.5,0-0.9,0.3-1.1,0.7l-1.1,2.9c-0.2,0.5-0.7,0.9-1.2,0.9h-6.7
			c-0.5,0-0.7-0.5-0.6-0.9L107.5,28.7z M114.3,47c0.4,0,0.6-0.4,0.5-0.7l-2.8-7.5c-0.1-0.3-0.5-0.3-0.6,0l-2.8,7.5
			c-0.1,0.4,0.1,0.7,0.5,0.7H114.3z"/>
		<path fill="#00BFDF" d="M130.4,28.8c0-0.5,0.4-1,1-1h14.1c7.9,0,11.5,5.1,11.5,11.2c0,4.1-1.7,7.9-5.4,9.8c-0.4,0.2-0.5,0.7-0.2,1
			l5.7,7.9c0.2,0.4,0,0.8-0.4,0.8h-7.5c-0.6,0-1.1-0.3-1.5-0.8l-4.8-6.8c-0.3-0.4-0.8-0.6-1.2-0.6h-2.5c-0.4,0-0.8,0.4-0.8,0.8v6.5
			c0,0.5-0.4,1-1,1h-5.9c-0.5,0-1-0.4-1-1L130.4,28.8L130.4,28.8z M145,35.1h-5.9c-0.4,0-0.8,0.4-0.8,0.8v6.6c0,0.4,0.4,0.8,0.8,0.8
			h5.9c3.2,0,4.3-1.9,4.3-4.1C149.3,36.8,148.2,35.1,145,35.1z"/>
		<path fill="#00BFDF" d="M160.6,28.8c0-0.5,0.4-1,1-1h6c0.5,0,1,0.4,1,1v28.8c0,0.5-0.4,1-1,1h-6c-0.5,0-1-0.4-1-1V28.8z"/>
		<path fill="#00BFDF" d="M174.2,58.6c-0.5,0-1-0.4-1-1V28.8c0-0.5,0.4-1,1-1h21.7c0.5,0,1,0.4,1,1v5.8c0,0.5-0.4,1-1,1h-14
			c-0.4,0-0.8,0.4-0.8,0.8v2.8c0,0.4,0.4,0.8,0.8,0.8h11.2c0.5,0,1,0.4,1,1v5.2c0,0.5-0.4,1-1,1h-11.2c-0.4,0-0.8,0.4-0.8,0.8v2.3
			c0,0.4,0.4,0.8,0.8,0.8h14c0.5,0,1,0.4,1,1v5.8c0,0.5-0.4,1-1,1H174.2z"/>
		<path fill="#00BFDF" d="M199.5,50.5c0-0.6,0.5-1.1,1-1.1h5.3c0.9,0,1.1,0.2,1.6,1c0.6,1,2.2,2,4.9,2c3,0,3.9-1,3.9-1.9
			c0-1.3-1.5-2.1-5.2-3.3c-4.9-1.6-11.3-4-11.3-10.3c0-5.9,5-9.5,12-9.5c7.2,0,12.2,3.7,12.6,9.2c0,0.6-0.5,1.1-1,1.1h-5.5
			c-0.7,0-1.1-0.4-1.4-1.1c-0.5-1.3-2-2.5-4.6-2.5c-2.7,0-3.7,1.1-3.7,2.1c0,1.2,1.4,1.8,5.1,3.1c4.3,1.5,11.5,4,11.5,10.8
			c0,6-5.2,9.1-12.2,9.1C205.5,59.2,200,56.1,199.5,50.5z"/>
	</g>
</svg>